<mxfile host="app.diagrams.net" agent="Mozilla/5.0 (Macintosh; Intel Mac OS X 10_15_7) AppleWebKit/605.1.15 (KHTML, like Gecko) Version/18.3.1 Safari/605.1.15" version="28.0.7">
  <diagram name="Page-1" id="wWnuWFDW1mfDBva1Ryw0">
    <mxGraphModel dx="1426" dy="832" grid="1" gridSize="10" guides="1" tooltips="1" connect="1" arrows="1" fold="1" page="1" pageScale="1" pageWidth="827" pageHeight="1169" math="1" shadow="0">
      <root>
        <mxCell id="0" />
        <mxCell id="1" parent="0" />
        <mxCell id="pfRf6pYZxzb6v7JtC61w-15" value="" style="rounded=0;whiteSpace=wrap;html=1;" vertex="1" parent="1">
          <mxGeometry x="80" y="70" width="650" height="330" as="geometry" />
        </mxCell>
        <mxCell id="pfRf6pYZxzb6v7JtC61w-1" value="" style="rounded=0;whiteSpace=wrap;html=1;" vertex="1" parent="1">
          <mxGeometry x="122" y="130" width="230" height="240" as="geometry" />
        </mxCell>
        <mxCell id="pfRf6pYZxzb6v7JtC61w-2" value="" style="rounded=0;whiteSpace=wrap;html=1;" vertex="1" parent="1">
          <mxGeometry x="572" y="130" width="120" height="240" as="geometry" />
        </mxCell>
        <mxCell id="pfRf6pYZxzb6v7JtC61w-3" value="&lt;font style=&quot;font-size: 23px;&quot;&gt;$$(pk,sk) \gets \mathsf{Gen}(1^\lambda)$$&lt;/font&gt;" style="text;html=1;align=center;verticalAlign=middle;resizable=0;points=[];autosize=1;strokeColor=none;fillColor=none;" vertex="1" parent="1">
          <mxGeometry x="10" y="140" width="460" height="40" as="geometry" />
        </mxCell>
        <mxCell id="pfRf6pYZxzb6v7JtC61w-4" value="&lt;b&gt;&lt;font face=&quot;Times New Roman&quot; style=&quot;font-size: 23px;&quot;&gt;Oracle kÃ½&lt;/font&gt;&lt;/b&gt;" style="ellipse;whiteSpace=wrap;html=1;aspect=fixed;fillColor=#e1d5e7;strokeColor=#9673a6;" vertex="1" parent="1">
          <mxGeometry x="182" y="220" width="110" height="110" as="geometry" />
        </mxCell>
        <mxCell id="pfRf6pYZxzb6v7JtC61w-5" value="&lt;font style=&quot;font-size: 23px;&quot; face=&quot;Times New Roman&quot;&gt;$$pk$$&lt;/font&gt;" style="text;html=1;align=center;verticalAlign=middle;resizable=0;points=[];autosize=1;strokeColor=none;fillColor=none;" vertex="1" parent="1">
          <mxGeometry x="418.5" y="140" width="90" height="40" as="geometry" />
        </mxCell>
        <mxCell id="pfRf6pYZxzb6v7JtC61w-6" value="&lt;font style=&quot;font-size: 23px;&quot; face=&quot;Times New Roman&quot;&gt;$$m_i$$&lt;/font&gt;" style="text;html=1;align=center;verticalAlign=middle;resizable=0;points=[];autosize=1;strokeColor=none;fillColor=none;" vertex="1" parent="1">
          <mxGeometry x="408.5" y="210" width="110" height="40" as="geometry" />
        </mxCell>
        <mxCell id="pfRf6pYZxzb6v7JtC61w-7" value="" style="endArrow=classic;html=1;rounded=0;entryX=0.955;entryY=0.264;entryDx=0;entryDy=0;entryPerimeter=0;" edge="1" parent="1" target="pfRf6pYZxzb6v7JtC61w-4">
          <mxGeometry width="50" height="50" relative="1" as="geometry">
            <mxPoint x="567" y="249.5" as="sourcePoint" />
            <mxPoint x="392" y="249.5" as="targetPoint" />
          </mxGeometry>
        </mxCell>
        <mxCell id="pfRf6pYZxzb6v7JtC61w-8" value="&lt;font style=&quot;font-size: 23px;&quot; face=&quot;Times New Roman&quot;&gt;$$(m^*,\sigma^*)$$&lt;/font&gt;" style="text;html=1;align=center;verticalAlign=middle;resizable=0;points=[];autosize=1;strokeColor=none;fillColor=none;" vertex="1" parent="1">
          <mxGeometry x="362" y="330" width="210" height="40" as="geometry" />
        </mxCell>
        <mxCell id="pfRf6pYZxzb6v7JtC61w-9" value="" style="endArrow=classic;html=1;rounded=0;entryX=1.009;entryY=0.971;entryDx=0;entryDy=0;entryPerimeter=0;" edge="1" parent="1" target="pfRf6pYZxzb6v7JtC61w-1">
          <mxGeometry width="50" height="50" relative="1" as="geometry">
            <mxPoint x="562" y="360" as="sourcePoint" />
            <mxPoint x="362" y="360" as="targetPoint" />
          </mxGeometry>
        </mxCell>
        <mxCell id="pfRf6pYZxzb6v7JtC61w-10" value="" style="endArrow=classic;html=1;rounded=0;entryX=-0.033;entryY=0.222;entryDx=0;entryDy=0;entryPerimeter=0;exitX=0.752;exitY=1.1;exitDx=0;exitDy=0;exitPerimeter=0;" edge="1" parent="1" source="pfRf6pYZxzb6v7JtC61w-3" target="pfRf6pYZxzb6v7JtC61w-2">
          <mxGeometry width="50" height="50" relative="1" as="geometry">
            <mxPoint x="382" y="180" as="sourcePoint" />
            <mxPoint x="520" y="180" as="targetPoint" />
          </mxGeometry>
        </mxCell>
        <mxCell id="pfRf6pYZxzb6v7JtC61w-11" value="&lt;span style=&quot;font-size: 23px;&quot;&gt;$$\sigma_i \gets \mathsf{Sign}(sk,m_i)$$&lt;/span&gt;" style="text;html=1;align=center;verticalAlign=middle;resizable=0;points=[];autosize=1;strokeColor=none;fillColor=none;" vertex="1" parent="1">
          <mxGeometry x="243.5" y="260" width="440" height="40" as="geometry" />
        </mxCell>
        <mxCell id="pfRf6pYZxzb6v7JtC61w-12" value="" style="endArrow=classic;html=1;rounded=0;entryX=0.738;entryY=1;entryDx=0;entryDy=0;entryPerimeter=0;exitX=0.752;exitY=1.1;exitDx=0;exitDy=0;exitPerimeter=0;" edge="1" parent="1" target="pfRf6pYZxzb6v7JtC61w-11">
          <mxGeometry width="50" height="50" relative="1" as="geometry">
            <mxPoint x="292" y="301" as="sourcePoint" />
            <mxPoint x="504" y="300" as="targetPoint" />
          </mxGeometry>
        </mxCell>
        <mxCell id="pfRf6pYZxzb6v7JtC61w-13" value="&lt;font style=&quot;font-size: 23px;&quot; face=&quot;Times New Roman&quot;&gt;&lt;b&gt;Challenger&lt;/b&gt;&lt;/font&gt;" style="text;html=1;align=center;verticalAlign=middle;resizable=0;points=[];autosize=1;strokeColor=none;fillColor=none;" vertex="1" parent="1">
          <mxGeometry x="167" y="90" width="130" height="40" as="geometry" />
        </mxCell>
        <mxCell id="pfRf6pYZxzb6v7JtC61w-14" value="&lt;font style=&quot;font-size: 23px;&quot; face=&quot;Times New Roman&quot;&gt;&lt;b&gt;Adversary&lt;/b&gt;&lt;/font&gt;" style="text;html=1;align=center;verticalAlign=middle;resizable=0;points=[];autosize=1;strokeColor=none;fillColor=none;" vertex="1" parent="1">
          <mxGeometry x="567" y="90" width="130" height="40" as="geometry" />
        </mxCell>
      </root>
    </mxGraphModel>
  </diagram>
</mxfile>
